#N canvas 1058 351 586 498 10;
#X obj 215 459 dac~;
#X obj 240 261 hsl 128 15 0 1 0 0 empty empty input_gain -2 -8 0 10
-262144 -1 -1 12700 1;
#X obj 267 301 hsl 128 15 0 1 0 0 empty empty saturation -2 -8 0 10
-262144 -1 -1 0 1;
#X obj 264 428 *~;
#X obj 286 361 hsl 128 15 0 3 0 0 empty empty MASTER_LEVEL -2 -8 0
10 -262144 -1 -1 12700 1;
#X msg 283 381 \$1 10;
#X obj 283 403 line~;
#X obj 183 427 *~;
#X obj 182 188 readsf~ 2;
#X obj 182 103 bng 15 250 50 0 empty empty load_file 17 7 0 10 -262144
-1 -1;
#X obj 182 123 openpanel;
#X msg 182 145 open \$1;
#X msg 252 160 start;
#X obj 79 210 *~;
#X obj 111 212 tgl 15 0 empty empty empty 17 7 0 10 -262144 -1 -1 1
1;
#X text 77 14 SATURATION~;
#X text 73 76 Attribution CC 4 \, formuls \, 2017;
#X text 73 48 Saturation effect with waveshaping based on Pd audio
example E05.chebychev;
#X obj 183 325 saturation2~;
#X msg 304 161 stop;
#X obj 79 188 adc~ 11;
#X connect 1 0 18 2;
#X connect 2 0 18 3;
#X connect 3 0 0 1;
#X connect 4 0 5 0;
#X connect 5 0 6 0;
#X connect 6 0 3 1;
#X connect 6 0 7 1;
#X connect 7 0 0 0;
#X connect 8 0 18 0;
#X connect 8 1 18 1;
#X connect 9 0 10 0;
#X connect 10 0 11 0;
#X connect 11 0 8 0;
#X connect 12 0 8 0;
#X connect 13 0 18 0;
#X connect 13 0 18 1;
#X connect 14 0 13 1;
#X connect 18 0 7 0;
#X connect 18 1 3 0;
#X connect 19 0 8 0;
#X connect 20 0 13 0;
