#N canvas 346 167 1559 856 10;
#X obj 92 854 dac~;
#X obj 162 47 hsl 128 15 0 1 0 0 empty empty input_gain -2 -8 0 10
-262144 -1 -1 12700 1;
#X obj 194 97 hsl 128 15 0 1 0 0 empty empty saturation -2 -8 0 10
-262144 -1 -1 1600 1;
#X obj 125 290 saturation2~;
#X obj 54 638 clip~ -1 1;
#X obj 144 681 clip~ -1 1;
#X obj 215 145 hsl 128 15 0 0.1 0 0 empty empty Disturbance -2 -8 0
10 -262144 -1 -1 0 1;
#X floatatom 673 351 5 0 200 0 - - -;
#X obj 544 475 bob~;
#X obj 673 373 / 25;
#X floatatom 556 337 5 0 150 0 - - -;
#X obj 556 359 mtof;
#X obj 557 404 pack 0 50;
#X obj 557 429 line~;
#X floatatom 556 382 7 0 0 0 - - -;
#X text 684 246 "resonance";
#X text 683 263 (>4 to oscillate);
#X text 721 369 scaled to 0-8;
#X text 720 351 0-200 control;
#X text 528 244 resonant or cutoff frequency, f 16;
#X obj 672 401 line~;
#X obj 556 288 loadbang;
#X msg 556 313 69;
#X text 213 162 0 0.1;
#X obj 159 428 bob~;
#X obj 94 428 *~ 1;
#X obj 265 399 *~ 1;
#X obj 262 651 *~ 0;
#X obj 161 500 *~ 0;
#X obj 690 549 * -1;
#X obj 690 574 + 1;
#X obj 690 620 line 0;
#X msg 690 597 \$1 20;
#X obj 630 559 line 0;
#X msg 630 536 \$1 20;
#X obj 581 744 saturation2~;
#X msg 648 695 1;
#X obj 652 659 loadbang;
#X msg 159 2 1;
#X obj 163 -34 loadbang;
#X floatatom 989 568 5 0 999 0 - - -;
#X msg 989 614 saturation \$1;
#X obj 989 590 / 100;
#X text 981 479 saturation point;
#X text 978 496 of "transistors";
#N canvas 0 23 450 300 clear 0;
#X msg 65 91 clear;
#X obj 65 67 metro 10000;
#X obj 65 18 loadbang;
#X msg 65 43 1;
#X obj 65 128 outlet;
#X connect 0 0 4 0;
#X connect 1 0 0 0;
#X connect 2 0 3 0;
#X connect 3 0 1 0;
#X restore 427 325 pd clear;
#X obj 1010 364 hsl 128 15 1 300 1 0 empty empty TransistorSaturation
-2 -8 0 10 -262144 -1 -1 12700 1;
#X obj 831 293 hsl 128 15 2 200 1 0 empty empty Resonance -2 -8 0 10
-262144 -1 -1 12700 1;
#X obj 845 140 hsl 128 15 0 150 0 0 empty empty CutOff_Frequency -2
-8 0 10 -262144 -1 -1 0 1;
#X obj 690 476 tgl 15 0 empty empty empty 17 7 0 10 -262144 -1 -1 0
1;
#X text 719 475 Button 3: Filter ON/OFF;
#X obj 837 330 - 2;
#X obj 875 184 abs;
#X obj 690 452 tedium_input 24;
#X obj 1386 37 loadbang;
#X obj 1386 64 delay 300;
#X msg 1386 90 \; pd dsp 1 \;;
#X obj 1251 449 terminal_tedium_adc, f 22;
#X msg 1209 418 open;
#X obj 1269 419 metro 10;
#X obj 1229 494 clip 0 3400;
#X obj 1228 518 expr (($f1 / 3400));
#X obj 61 805 *~ 3;
#X obj 142 806 *~ 3;
#X obj 1310 104 send init;
#X obj 1209 385 receive init;
#X obj 1244 559 clip 0 3400;
#X obj 1244 587 expr (($f1 / 3400));
#X obj 1273 614 clip 0 3400;
#X obj 1299 676 clip 0 3400;
#X obj 1272 638 expr (($f1 / 3400) * 0.1);
#X obj 1298 700 expr (($f1 / 3400) * 150);
#X obj 1330 744 clip 0 3400;
#X obj 1366 810 clip 0 3400;
#X obj 1329 768 expr (($f1 / 3400) * 200);
#X obj 1365 834 expr (($f1 / 3400) * 300);
#X obj 98 160 adc~ 1 2;
#X obj 832 451 tedium_input 4;
#X text 804 432 CV Gate 1 Input: Filter OnOFF;
#X connect 1 0 3 2;
#X connect 2 0 3 3;
#X connect 3 0 25 0;
#X connect 3 0 24 0;
#X connect 3 1 26 0;
#X connect 3 1 8 0;
#X connect 4 0 62 0;
#X connect 5 0 63 0;
#X connect 6 0 3 4;
#X connect 7 0 9 0;
#X connect 8 0 35 1;
#X connect 9 0 20 0;
#X connect 10 0 11 0;
#X connect 11 0 14 0;
#X connect 12 0 13 0;
#X connect 13 0 8 1;
#X connect 13 0 24 1;
#X connect 14 0 12 0;
#X connect 20 0 8 2;
#X connect 20 0 24 2;
#X connect 21 0 22 0;
#X connect 22 0 10 0;
#X connect 24 0 35 0;
#X connect 25 0 4 0;
#X connect 26 0 5 0;
#X connect 27 0 5 0;
#X connect 28 0 4 0;
#X connect 29 0 30 0;
#X connect 30 0 32 0;
#X connect 31 0 25 1;
#X connect 31 0 26 1;
#X connect 32 0 31 0;
#X connect 33 0 27 1;
#X connect 33 0 28 1;
#X connect 34 0 33 0;
#X connect 35 0 28 0;
#X connect 35 1 27 0;
#X connect 36 0 35 4;
#X connect 36 0 35 3;
#X connect 36 0 35 2;
#X connect 37 0 36 0;
#X connect 38 0 1 0;
#X connect 39 0 38 0;
#X connect 40 0 42 0;
#X connect 41 0 8 0;
#X connect 41 0 24 0;
#X connect 42 0 41 0;
#X connect 45 0 8 0;
#X connect 45 0 24 0;
#X connect 46 0 40 0;
#X connect 47 0 51 0;
#X connect 48 0 52 0;
#X connect 49 0 34 0;
#X connect 49 0 29 0;
#X connect 51 0 7 0;
#X connect 52 0 10 0;
#X connect 53 0 49 0;
#X connect 54 0 55 0;
#X connect 55 0 56 0;
#X connect 55 0 64 0;
#X connect 57 0 60 0;
#X connect 57 1 66 0;
#X connect 57 2 68 0;
#X connect 57 3 69 0;
#X connect 57 4 72 0;
#X connect 57 5 73 0;
#X connect 58 0 57 0;
#X connect 59 0 57 0;
#X connect 60 0 61 0;
#X connect 61 0 3 2;
#X connect 62 0 0 0;
#X connect 63 0 0 1;
#X connect 65 0 58 0;
#X connect 65 0 59 0;
#X connect 66 0 67 0;
#X connect 67 0 3 3;
#X connect 68 0 70 0;
#X connect 69 0 71 0;
#X connect 70 0 3 4;
#X connect 71 0 10 0;
#X connect 72 0 74 0;
#X connect 73 0 75 0;
#X connect 74 0 7 0;
#X connect 75 0 40 0;
#X connect 76 0 3 0;
#X connect 76 1 3 1;
#X connect 77 0 49 0;
